<svg width="15" height="15" viewBox="0 0 15 15" fill="none" xmlns="http://www.w3.org/2000/svg">
<path d="M7.83333 7.33333V0.729167C7.83333 0.520833 7.91667 0.350695 8.08333 0.21875C8.25 0.0868056 8.44444 0.0208334 8.66667 0.0208334H14.1875C14.4097 0.0208334 14.6007 0.0868056 14.7604 0.21875C14.9201 0.350695 15 0.520833 15 0.729167V4.4375C15 4.67361 14.9236 4.87153 14.7708 5.03125C14.6181 5.19097 14.4236 5.27083 14.1875 5.27083H10L7.83333 7.33333ZM9.08333 4.02083H13.75V1.27083H9.08333V4.02083ZM14.0625 15C12.3681 15 10.684 14.5833 9.01042 13.75C7.33681 12.9167 5.83333 11.8333 4.5 10.5C3.16667 9.16667 2.08333 7.6632 1.25 5.98958C0.416667 4.31597 0 2.63194 0 0.9375C0 0.673611 0.0902778 0.451389 0.270833 0.270833C0.451389 0.0902778 0.673611 0 0.9375 0H3.85417C4.04861 0 4.21875 0.0659722 4.36458 0.197917C4.51042 0.329861 4.60417 0.506944 4.64583 0.729167L5.20833 3.35417C5.23611 3.54861 5.23264 3.72569 5.19792 3.88542C5.1632 4.04514 5.09028 4.18056 4.97917 4.29167L2.89583 6.39583C3.67361 7.6875 4.54514 8.8125 5.51042 9.77083C6.47569 10.7292 7.56945 11.5417 8.79167 12.2083L10.7708 10.1667C10.9097 10.0139 11.0694 9.90625 11.25 9.84375C11.4306 9.78125 11.6111 9.77083 11.7917 9.8125L14.2708 10.3542C14.4792 10.3958 14.6528 10.5 14.7917 10.6667C14.9306 10.8333 15 11.0278 15 11.25V14.0625C15 14.3264 14.9097 14.5486 14.7292 14.7292C14.5486 14.9097 14.3264 15 14.0625 15ZM2.27083 5.25L3.95833 3.54167L3.47917 1.25H1.25C1.25 1.79167 1.33333 2.38542 1.5 3.03125C1.66667 3.67708 1.92361 4.41667 2.27083 5.25ZM9.95833 12.8125C10.5278 13.0764 11.1458 13.2917 11.8125 13.4583C12.4792 13.625 13.125 13.7222 13.75 13.75V11.5208L11.6042 11.0833L9.95833 12.8125Z" fill="white"/>
</svg>
