<svg width="80" height="89" viewBox="0 0 80 89" fill="none" xmlns="http://www.w3.org/2000/svg">
<rect x="1.5" y="1.5" width="77" height="85.3582" fill="#F4A340" stroke="black" stroke-width="3"/>
<path d="M17.3428 26.1016V28H10.9092V26.1016H17.3428ZM11.6387 15.2031V28H9.22168V15.2031H11.6387ZM24.2246 17.1455L20.5771 28H18.0195L22.8008 15.2031H24.4355L24.2246 17.1455ZM27.2744 28L23.6094 17.1455L23.3896 15.2031H25.0332L29.8408 28H27.2744ZM27.1074 23.2451V25.1523H20.2432V23.2451H27.1074ZM16.3408 36.2031H18.7578V44.7021C18.7578 45.6807 18.5469 46.5039 18.125 47.1719C17.7031 47.834 17.1289 48.335 16.4023 48.6748C15.6758 49.0088 14.8496 49.1758 13.9238 49.1758C12.9863 49.1758 12.1514 49.0088 11.4189 48.6748C10.6865 48.335 10.1123 47.834 9.69629 47.1719C9.28027 46.5039 9.07227 45.6807 9.07227 44.7021V36.2031H11.4893V44.7021C11.4893 45.2998 11.5889 45.7891 11.7881 46.1699C11.9873 46.5449 12.2686 46.8232 12.6318 47.0049C12.9951 47.1865 13.4258 47.2773 13.9238 47.2773C14.4277 47.2773 14.8584 47.1865 15.2158 47.0049C15.5791 46.8232 15.8574 46.5449 16.0508 46.1699C16.2441 45.7891 16.3408 45.2998 16.3408 44.7021V36.2031ZM21.0518 36.2031H25.7012C26.6738 36.2031 27.5088 36.3496 28.2061 36.6426C28.9033 36.9355 29.4395 37.3691 29.8145 37.9434C30.1895 38.5176 30.377 39.2236 30.377 40.0615C30.377 40.7236 30.2598 41.2979 30.0254 41.7842C29.791 42.2705 29.46 42.6777 29.0322 43.0059C28.6104 43.334 28.1123 43.5918 27.5381 43.7793L26.7822 44.166H22.6777L22.6602 42.2588H25.7275C26.2256 42.2588 26.6387 42.1709 26.9668 41.9951C27.2949 41.8193 27.541 41.5762 27.7051 41.2656C27.875 40.9551 27.96 40.6006 27.96 40.2021C27.96 39.7744 27.8779 39.4053 27.7139 39.0947C27.5498 38.7783 27.3008 38.5352 26.9668 38.3652C26.6328 38.1953 26.2109 38.1104 25.7012 38.1104H23.4688V49H21.0518V36.2031ZM28.2764 49L25.3145 43.2695L27.8721 43.2607L30.8691 48.877V49H28.2764ZM39.1924 45.6777C39.1924 45.4316 39.1543 45.2119 39.0781 45.0186C39.0078 44.8193 38.876 44.6406 38.6826 44.4824C38.4951 44.3184 38.2285 44.1602 37.8828 44.0078C37.543 43.8496 37.1035 43.6855 36.5645 43.5156C35.9668 43.3281 35.4102 43.1172 34.8945 42.8828C34.3789 42.6484 33.9248 42.376 33.5322 42.0654C33.1455 41.7549 32.8438 41.3975 32.627 40.9932C32.4102 40.583 32.3018 40.1084 32.3018 39.5693C32.3018 39.042 32.4131 38.5615 32.6357 38.1279C32.8643 37.6943 33.1865 37.3223 33.6025 37.0117C34.0186 36.6953 34.5078 36.4521 35.0703 36.2822C35.6387 36.1123 36.2656 36.0273 36.9512 36.0273C37.9004 36.0273 38.7207 36.2002 39.4121 36.5459C40.1094 36.8916 40.6484 37.3604 41.0293 37.9521C41.4102 38.5439 41.6006 39.209 41.6006 39.9473H39.1924C39.1924 39.5488 39.1074 39.1973 38.9375 38.8926C38.7734 38.5879 38.5215 38.3477 38.1816 38.1719C37.8477 37.9961 37.4258 37.9082 36.916 37.9082C36.4238 37.9082 36.0137 37.9814 35.6855 38.1279C35.3633 38.2744 35.1201 38.4736 34.9561 38.7256C34.7979 38.9775 34.7188 39.2588 34.7188 39.5693C34.7188 39.8037 34.7744 40.0146 34.8857 40.2021C34.9971 40.3838 35.1641 40.5566 35.3867 40.7207C35.6094 40.8789 35.8848 41.0283 36.2129 41.1689C36.5469 41.3037 36.9336 41.4385 37.373 41.5732C38.0762 41.7842 38.6914 42.0186 39.2188 42.2764C39.752 42.5342 40.1943 42.8271 40.5459 43.1553C40.9033 43.4834 41.1699 43.8525 41.3457 44.2627C41.5273 44.6729 41.6182 45.1387 41.6182 45.6602C41.6182 46.2109 41.5098 46.7031 41.293 47.1367C41.0762 47.5703 40.7656 47.9395 40.3613 48.2441C39.957 48.5488 39.4707 48.7803 38.9023 48.9385C38.3398 49.0967 37.71 49.1758 37.0127 49.1758C36.3916 49.1758 35.7764 49.0938 35.167 48.9297C34.5635 48.7598 34.0156 48.5078 33.5234 48.1738C33.0312 47.834 32.6387 47.4062 32.3457 46.8906C32.0527 46.3691 31.9062 45.7598 31.9062 45.0625H34.332C34.332 45.4668 34.3965 45.8125 34.5254 46.0996C34.6602 46.3809 34.8477 46.6123 35.0879 46.7939C35.334 46.9697 35.6211 47.0986 35.9492 47.1807C36.2773 47.2627 36.6318 47.3037 37.0127 47.3037C37.5049 47.3037 37.9092 47.2363 38.2256 47.1016C38.5479 46.9609 38.7881 46.7676 38.9463 46.5215C39.1104 46.2754 39.1924 45.9941 39.1924 45.6777ZM48.5703 38.1455L44.9229 49H42.3652L47.1465 36.2031H48.7812L48.5703 38.1455ZM51.6201 49L47.9551 38.1455L47.7354 36.2031H49.3789L54.1865 49H51.6201ZM51.4531 44.2451V46.1523H44.5889V44.2451H51.4531ZM15.9189 66.6777C15.9189 66.4316 15.8809 66.2119 15.8047 66.0186C15.7344 65.8193 15.6025 65.6406 15.4092 65.4824C15.2217 65.3184 14.9551 65.1602 14.6094 65.0078C14.2695 64.8496 13.8301 64.6855 13.291 64.5156C12.6934 64.3281 12.1367 64.1172 11.6211 63.8828C11.1055 63.6484 10.6514 63.376 10.2588 63.0654C9.87207 62.7549 9.57031 62.3975 9.35352 61.9932C9.13672 61.583 9.02832 61.1084 9.02832 60.5693C9.02832 60.042 9.13965 59.5615 9.3623 59.1279C9.59082 58.6943 9.91309 58.3223 10.3291 58.0117C10.7451 57.6953 11.2344 57.4521 11.7969 57.2822C12.3652 57.1123 12.9922 57.0273 13.6777 57.0273C14.627 57.0273 15.4473 57.2002 16.1387 57.5459C16.8359 57.8916 17.375 58.3604 17.7559 58.9521C18.1367 59.5439 18.3271 60.209 18.3271 60.9473H15.9189C15.9189 60.5488 15.834 60.1973 15.6641 59.8926C15.5 59.5879 15.248 59.3477 14.9082 59.1719C14.5742 58.9961 14.1523 58.9082 13.6426 58.9082C13.1504 58.9082 12.7402 58.9814 12.4121 59.1279C12.0898 59.2744 11.8467 59.4736 11.6826 59.7256C11.5244 59.9775 11.4453 60.2588 11.4453 60.5693C11.4453 60.8037 11.501 61.0146 11.6123 61.2021C11.7236 61.3838 11.8906 61.5566 12.1133 61.7207C12.3359 61.8789 12.6113 62.0283 12.9395 62.1689C13.2734 62.3037 13.6602 62.4385 14.0996 62.5732C14.8027 62.7842 15.418 63.0186 15.9453 63.2764C16.4785 63.5342 16.9209 63.8271 17.2725 64.1553C17.6299 64.4834 17.8965 64.8525 18.0723 65.2627C18.2539 65.6729 18.3447 66.1387 18.3447 66.6602C18.3447 67.2109 18.2363 67.7031 18.0195 68.1367C17.8027 68.5703 17.4922 68.9395 17.0879 69.2441C16.6836 69.5488 16.1973 69.7803 15.6289 69.9385C15.0664 70.0967 14.4365 70.1758 13.7393 70.1758C13.1182 70.1758 12.5029 70.0938 11.8936 69.9297C11.29 69.7598 10.7422 69.5078 10.25 69.1738C9.75781 68.834 9.36523 68.4062 9.07227 67.8906C8.7793 67.3691 8.63281 66.7598 8.63281 66.0625H11.0586C11.0586 66.4668 11.123 66.8125 11.252 67.0996C11.3867 67.3809 11.5742 67.6123 11.8145 67.7939C12.0605 67.9697 12.3477 68.0986 12.6758 68.1807C13.0039 68.2627 13.3584 68.3037 13.7393 68.3037C14.2314 68.3037 14.6357 68.2363 14.9521 68.1016C15.2744 67.9609 15.5146 67.7676 15.6729 67.5215C15.8369 67.2754 15.9189 66.9941 15.9189 66.6777ZM25.7012 57.2031V70H23.293V57.2031H25.7012ZM29.6738 57.2031V59.1104H19.3643V57.2031H29.6738ZM41.3984 63.2764V63.9355C41.3984 64.9023 41.2695 65.7725 41.0117 66.5459C40.7539 67.3135 40.3877 67.9668 39.9131 68.5059C39.4385 69.0449 38.873 69.458 38.2168 69.7451C37.5605 70.0322 36.8311 70.1758 36.0283 70.1758C35.2373 70.1758 34.5107 70.0322 33.8486 69.7451C33.1924 69.458 32.624 69.0449 32.1436 68.5059C31.6631 67.9668 31.291 67.3135 31.0273 66.5459C30.7637 65.7725 30.6318 64.9023 30.6318 63.9355V63.2764C30.6318 62.3037 30.7637 61.4336 31.0273 60.666C31.291 59.8984 31.6602 59.2451 32.1348 58.7061C32.6094 58.1611 33.1748 57.7451 33.8311 57.458C34.4932 57.1709 35.2197 57.0273 36.0107 57.0273C36.8135 57.0273 37.543 57.1709 38.1992 57.458C38.8555 57.7451 39.4209 58.1611 39.8955 58.7061C40.376 59.2451 40.7451 59.8984 41.0029 60.666C41.2666 61.4336 41.3984 62.3037 41.3984 63.2764ZM38.9551 63.9355V63.2588C38.9551 62.5615 38.8906 61.9492 38.7617 61.4219C38.6328 60.8887 38.4424 60.4404 38.1904 60.0771C37.9385 59.7139 37.6279 59.4414 37.2588 59.2598C36.8896 59.0723 36.4736 58.9785 36.0107 58.9785C35.542 58.9785 35.126 59.0723 34.7627 59.2598C34.4053 59.4414 34.1006 59.7139 33.8486 60.0771C33.5967 60.4404 33.4033 60.8887 33.2686 61.4219C33.1396 61.9492 33.0752 62.5615 33.0752 63.2588V63.9355C33.0752 64.627 33.1396 65.2393 33.2686 65.7725C33.4033 66.3057 33.5967 66.7568 33.8486 67.126C34.1064 67.4893 34.417 67.7646 34.7803 67.9521C35.1436 68.1396 35.5596 68.2334 36.0283 68.2334C36.4971 68.2334 36.9131 68.1396 37.2764 67.9521C37.6396 67.7646 37.9443 67.4893 38.1904 67.126C38.4424 66.7568 38.6328 66.3057 38.7617 65.7725C38.8906 65.2393 38.9551 64.627 38.9551 63.9355ZM43.4463 57.2031H48.0957C49.0684 57.2031 49.9033 57.3496 50.6006 57.6426C51.2979 57.9355 51.834 58.3691 52.209 58.9434C52.584 59.5176 52.7715 60.2236 52.7715 61.0615C52.7715 61.7236 52.6543 62.2979 52.4199 62.7842C52.1855 63.2705 51.8545 63.6777 51.4268 64.0059C51.0049 64.334 50.5068 64.5918 49.9326 64.7793L49.1768 65.166H45.0723L45.0547 63.2588H48.1221C48.6201 63.2588 49.0332 63.1709 49.3613 62.9951C49.6895 62.8193 49.9355 62.5762 50.0996 62.2656C50.2695 61.9551 50.3545 61.6006 50.3545 61.2021C50.3545 60.7744 50.2725 60.4053 50.1084 60.0947C49.9443 59.7783 49.6953 59.5352 49.3613 59.3652C49.0273 59.1953 48.6055 59.1104 48.0957 59.1104H45.8633V70H43.4463V57.2031ZM50.6709 70L47.709 64.2695L50.2666 64.2607L53.2637 69.877V70H50.6709ZM63.3711 68.1016V70H56.5684V68.1016H63.3711ZM57.3066 57.2031V70H54.8896V57.2031H57.3066ZM62.4834 62.4854V64.3398H56.5684V62.4854H62.4834ZM63.3447 57.2031V59.1104H56.5684V57.2031H63.3447Z" fill="black"/>
</svg>
