<svg width="21" height="21" viewBox="0 0 21 21" fill="none" xmlns="http://www.w3.org/2000/svg">
<path d="M6.08102 16.0096C4.98143 16.0096 4.09176 16.9096 4.09176 18.0096C4.09176 19.1096 4.98143 20.0096 6.08102 20.0096C7.18062 20.0096 8.08028 19.1096 8.08028 18.0096C8.08028 16.9096 7.18062 16.0096 6.08102 16.0096ZM16.0773 16.0096C14.9777 16.0096 14.0881 16.9096 14.0881 18.0096C14.0881 19.1096 14.9777 20.0096 16.0773 20.0096C17.1769 20.0096 18.0766 19.1096 18.0766 18.0096C18.0766 16.9096 17.1769 16.0096 16.0773 16.0096ZM14.6279 11.0096C15.3776 11.0096 16.0373 10.5996 16.3772 9.97961L19.9559 3.48961C20.3257 2.82961 19.8459 2.00961 19.0862 2.00961H4.29169L3.35204 0.00961304H0.083252V2.00961H2.08251L5.68117 9.59961L4.33167 12.0396C3.60195 13.3796 4.56159 15.0096 6.08102 15.0096H18.0766V13.0096H6.08102L7.18062 11.0096H14.6279ZM5.24134 4.00961H17.3868L14.6279 9.00961H7.61046L5.24134 4.00961Z" fill="black" fill-opacity="0.63"/>
</svg>
